<svg width="321" height="1352" viewBox="0 0 321 1352" fill="none" xmlns="http://www.w3.org/2000/svg">
<path d="M84.4859 14V3.92H88.3499C89.3672 3.92 90.1559 4.19067 90.7159 4.732C91.2759 5.27333 91.5559 6.034 91.5559 7.014C91.5559 7.98467 91.2712 8.74067 90.7019 9.282C90.1419 9.82333 89.3486 10.094 88.3219 10.094H85.5499V14H84.4859ZM85.5499 9.1H88.2939C89.7406 9.1 90.4639 8.40467 90.4639 7.014C90.4639 5.614 89.7452 4.914 88.3079 4.914H85.5499V9.1ZM95.9946 14.168C94.9492 14.168 94.1232 13.818 93.5166 13.118C92.9192 12.418 92.6206 11.466 92.6206 10.262C92.6206 9.142 92.9332 8.22733 93.5586 7.518C94.1839 6.80867 95.0052 6.454 96.0226 6.454C97.0399 6.454 97.8519 6.804 98.4586 7.504C99.0746 8.19467 99.3826 9.114 99.3826 10.262C99.3826 11.4287 99.0699 12.3713 98.4446 13.09C97.8192 13.8087 97.0026 14.168 95.9946 14.168ZM93.6986 10.262C93.6986 11.2047 93.8946 11.9327 94.2866 12.446C94.6786 12.9593 95.2479 13.216 95.9946 13.216C96.7132 13.216 97.2779 12.9593 97.6886 12.446C98.0992 11.9233 98.3046 11.1953 98.3046 10.262C98.3046 9.37533 98.1039 8.68 97.7026 8.176C97.3012 7.66267 96.7412 7.406 96.0226 7.406C95.3039 7.406 94.7346 7.658 94.3146 8.162C93.9039 8.666 93.6986 9.366 93.6986 10.262ZM103.515 14.168C102.629 14.168 101.938 13.9673 101.443 13.566C100.949 13.1553 100.701 12.5813 100.701 11.844H101.737C101.737 12.7867 102.325 13.258 103.501 13.258C104.696 13.258 105.293 12.8707 105.293 12.096C105.293 11.8067 105.209 11.578 105.041 11.41C104.883 11.242 104.607 11.0973 104.215 10.976L102.507 10.472C101.369 10.1267 100.799 9.48733 100.799 8.554C100.799 7.91933 101.037 7.41067 101.513 7.028C101.989 6.64533 102.629 6.454 103.431 6.454C104.271 6.454 104.925 6.64533 105.391 7.028C105.858 7.40133 106.091 7.92867 106.091 8.61H105.069C105.069 7.77 104.528 7.35 103.445 7.35C102.372 7.35 101.835 7.73267 101.835 8.498C101.835 8.778 101.915 9.002 102.073 9.17C102.232 9.32867 102.503 9.464 102.885 9.576L104.607 10.094C105.765 10.4393 106.343 11.0927 106.343 12.054C106.343 12.6887 106.082 13.202 105.559 13.594C105.046 13.9767 104.365 14.168 103.515 14.168ZM110.032 14.126C109.388 14.126 108.921 13.9813 108.632 13.692C108.343 13.3933 108.198 12.9173 108.198 12.264V7.546H107.078V6.86L108.198 6.622V5.082L109.234 4.788V6.622H111.054V7.546H109.234V13.16H111.054V14.042C110.737 14.098 110.396 14.126 110.032 14.126ZM112.565 14V6.622H113.615V14H112.565ZM112.397 4.48C112.397 4.30267 112.463 4.14867 112.593 4.018C112.733 3.88733 112.901 3.822 113.097 3.822C113.293 3.822 113.457 3.88733 113.587 4.018C113.718 4.13933 113.783 4.29333 113.783 4.48C113.783 4.68533 113.718 4.85333 113.587 4.984C113.457 5.11467 113.289 5.18 113.083 5.18C112.878 5.18 112.71 5.11467 112.579 4.984C112.458 4.85333 112.397 4.68533 112.397 4.48ZM121.64 14.196C120.669 14.196 119.895 13.8413 119.316 13.132C118.737 12.4133 118.448 11.4567 118.448 10.262C118.448 9.114 118.747 8.19 119.344 7.49C119.941 6.78067 120.73 6.426 121.71 6.426C122.317 6.426 122.821 6.58467 123.222 6.902C123.623 7.21933 123.889 7.658 124.02 8.218H124.034V3.92H125.084V14H124.398L124.132 12.18H124.118C123.959 12.8147 123.661 13.3093 123.222 13.664C122.783 14.0187 122.256 14.196 121.64 14.196ZM119.512 10.262C119.512 11.2047 119.708 11.9373 120.1 12.46C120.501 12.9827 121.061 13.244 121.78 13.244C122.471 13.244 123.026 12.9733 123.446 12.432C123.875 11.8907 124.09 11.172 124.09 10.276C124.09 9.408 123.88 8.708 123.46 8.176C123.04 7.644 122.494 7.378 121.822 7.378C121.103 7.378 120.539 7.63467 120.128 8.148C119.717 8.66133 119.512 9.366 119.512 10.262ZM127.358 14V6.622H128.408V14H127.358ZM127.19 4.48C127.19 4.30267 127.256 4.14867 127.386 4.018C127.526 3.88733 127.694 3.822 127.89 3.822C128.086 3.822 128.25 3.88733 128.38 4.018C128.511 4.13933 128.576 4.29333 128.576 4.48C128.576 4.68533 128.511 4.85333 128.38 4.984C128.25 5.11467 128.082 5.18 127.876 5.18C127.671 5.18 127.503 5.11467 127.372 4.984C127.251 4.85333 127.19 4.68533 127.19 4.48ZM132.896 14.168C132.009 14.168 131.319 13.9673 130.824 13.566C130.329 13.1553 130.082 12.5813 130.082 11.844H131.118C131.118 12.7867 131.706 13.258 132.882 13.258C134.077 13.258 134.674 12.8707 134.674 12.096C134.674 11.8067 134.59 11.578 134.422 11.41C134.263 11.242 133.988 11.0973 133.596 10.976L131.888 10.472C130.749 10.1267 130.18 9.48733 130.18 8.554C130.18 7.91933 130.418 7.41067 130.894 7.028C131.37 6.64533 132.009 6.454 132.812 6.454C133.652 6.454 134.305 6.64533 134.772 7.028C135.239 7.40133 135.472 7.92867 135.472 8.61H134.45C134.45 7.77 133.909 7.35 132.826 7.35C131.753 7.35 131.216 7.73267 131.216 8.498C131.216 8.778 131.295 9.002 131.454 9.17C131.613 9.32867 131.883 9.464 132.266 9.576L133.988 10.094C135.145 10.4393 135.724 11.0927 135.724 12.054C135.724 12.6887 135.463 13.202 134.94 13.594C134.427 13.9767 133.745 14.168 132.896 14.168ZM137.339 16.534V6.622H138.025L138.291 8.428H138.305C138.463 7.79333 138.757 7.30333 139.187 6.958C139.625 6.60333 140.157 6.426 140.783 6.426C141.744 6.426 142.514 6.78067 143.093 7.49C143.681 8.19933 143.975 9.15133 143.975 10.346C143.975 11.5033 143.676 12.4367 143.079 13.146C142.481 13.846 141.693 14.196 140.713 14.196C140.115 14.196 139.611 14.0373 139.201 13.72C138.799 13.3933 138.533 12.9547 138.403 12.404H138.389V16.534H137.339ZM138.333 10.346C138.333 11.2047 138.538 11.9047 138.949 12.446C139.369 12.978 139.919 13.244 140.601 13.244C141.319 13.244 141.879 12.9873 142.281 12.474C142.691 11.9607 142.897 11.2513 142.897 10.346C142.897 9.40333 142.701 8.67533 142.309 8.162C141.917 7.63933 141.361 7.378 140.643 7.378C139.943 7.378 139.383 7.64867 138.963 8.19C138.543 8.73133 138.333 9.45 138.333 10.346ZM148.754 14.168C147.709 14.168 146.883 13.818 146.276 13.118C145.679 12.418 145.38 11.466 145.38 10.262C145.38 9.142 145.693 8.22733 146.318 7.518C146.944 6.80867 147.765 6.454 148.782 6.454C149.8 6.454 150.612 6.804 151.218 7.504C151.834 8.19467 152.142 9.114 152.142 10.262C152.142 11.4287 151.83 12.3713 151.204 13.09C150.579 13.8087 149.762 14.168 148.754 14.168ZM146.458 10.262C146.458 11.2047 146.654 11.9327 147.046 12.446C147.438 12.9593 148.008 13.216 148.754 13.216C149.473 13.216 150.038 12.9593 150.448 12.446C150.859 11.9233 151.064 11.1953 151.064 10.262C151.064 9.37533 150.864 8.68 150.462 8.176C150.061 7.66267 149.501 7.406 148.782 7.406C148.064 7.406 147.494 7.658 147.074 8.162C146.664 8.666 146.458 9.366 146.458 10.262ZM153.909 14V6.622H154.595L154.861 8.204H154.875C155.034 7.644 155.314 7.21 155.715 6.902C156.116 6.58467 156.611 6.426 157.199 6.426C158.011 6.426 158.641 6.678 159.089 7.182C159.546 7.686 159.775 8.39533 159.775 9.31V14H158.725V9.38C158.725 8.04533 158.184 7.378 157.101 7.378C156.457 7.378 155.939 7.59733 155.547 8.036C155.155 8.47467 154.959 9.058 154.959 9.786V14H153.909ZM161.893 14V6.622H162.943V14H161.893ZM161.725 4.48C161.725 4.30267 161.791 4.14867 161.921 4.018C162.061 3.88733 162.229 3.822 162.425 3.822C162.621 3.822 162.785 3.88733 162.915 4.018C163.046 4.13933 163.111 4.29333 163.111 4.48C163.111 4.68533 163.046 4.85333 162.915 4.984C162.785 5.11467 162.617 5.18 162.411 5.18C162.206 5.18 162.038 5.11467 161.907 4.984C161.786 4.85333 161.725 4.68533 161.725 4.48ZM168.604 14.196C167.988 14.196 167.461 14.0187 167.022 13.664C166.593 13.3093 166.304 12.8147 166.154 12.18H166.14L165.874 14H165.188V3.92H166.238V8.218H166.252C166.402 7.658 166.682 7.21933 167.092 6.902C167.503 6.58467 168.007 6.426 168.604 6.426C169.594 6.426 170.378 6.77133 170.956 7.462C171.535 8.15267 171.824 9.086 171.824 10.262C171.824 11.438 171.526 12.39 170.928 13.118C170.34 13.8367 169.566 14.196 168.604 14.196ZM166.182 10.276C166.182 11.172 166.392 11.8907 166.812 12.432C167.232 12.9733 167.783 13.244 168.464 13.244C169.174 13.244 169.729 12.9827 170.13 12.46C170.541 11.928 170.746 11.1953 170.746 10.262C170.746 9.338 170.555 8.62867 170.172 8.134C169.79 7.63 169.234 7.378 168.506 7.378C167.806 7.378 167.242 7.644 166.812 8.176C166.392 8.708 166.182 9.408 166.182 10.276ZM173.638 14V6.622H174.688V14H173.638ZM173.47 4.48C173.47 4.30267 173.535 4.14867 173.666 4.018C173.806 3.88733 173.974 3.822 174.17 3.822C174.366 3.822 174.529 3.88733 174.66 4.018C174.79 4.13933 174.856 4.29333 174.856 4.48C174.856 4.68533 174.79 4.85333 174.66 4.984C174.529 5.11467 174.361 5.18 174.156 5.18C173.95 5.18 173.782 5.11467 173.652 4.984C173.53 4.85333 173.47 4.68533 173.47 4.48ZM176.933 14V3.92H177.983V14H176.933ZM180.255 14V6.622H181.305V14H180.255ZM180.087 4.48C180.087 4.30267 180.152 4.14867 180.283 4.018C180.423 3.88733 180.591 3.822 180.787 3.822C180.983 3.822 181.146 3.88733 181.277 4.018C181.407 4.13933 181.473 4.29333 181.473 4.48C181.473 4.68533 181.407 4.85333 181.277 4.984C181.146 5.11467 180.978 5.18 180.773 5.18C180.567 5.18 180.399 5.11467 180.269 4.984C180.147 4.85333 180.087 4.68533 180.087 4.48ZM183.55 14V6.622H184.6V14H183.55ZM183.382 4.48C183.382 4.30267 183.447 4.14867 183.578 4.018C183.718 3.88733 183.886 3.822 184.082 3.822C184.278 3.822 184.441 3.88733 184.572 4.018C184.702 4.13933 184.768 4.29333 184.768 4.48C184.768 4.68533 184.702 4.85333 184.572 4.984C184.441 5.11467 184.273 5.18 184.068 5.18C183.862 5.18 183.694 5.11467 183.564 4.984C183.442 4.85333 183.382 4.68533 183.382 4.48ZM186.733 13.244C186.733 12.8987 186.817 12.656 186.985 12.516C187.153 12.376 187.353 12.306 187.587 12.306C187.829 12.306 188.035 12.376 188.203 12.516C188.38 12.656 188.469 12.8987 188.469 13.244C188.469 13.58 188.38 13.8227 188.203 13.972C188.035 14.1213 187.829 14.196 187.587 14.196C187.353 14.196 187.153 14.1213 186.985 13.972C186.817 13.8227 186.733 13.58 186.733 13.244ZM186.733 7.252C186.733 6.89733 186.817 6.65 186.985 6.51C187.153 6.37 187.353 6.3 187.587 6.3C187.829 6.3 188.035 6.37 188.203 6.51C188.38 6.65 188.469 6.89733 188.469 7.252C188.469 7.588 188.38 7.83067 188.203 7.98C188.035 8.12933 187.829 8.204 187.587 8.204C187.353 8.204 187.153 8.12933 186.985 7.98C186.817 7.83067 186.733 7.588 186.733 7.252ZM199.759 8.274C199.759 8.84333 199.717 9.41267 199.633 9.982C199.558 10.542 199.423 11.074 199.227 11.578C199.031 12.0727 198.76 12.516 198.415 12.908C198.069 13.2907 197.631 13.594 197.099 13.818C196.567 14.0327 195.923 14.14 195.167 14.14C194.98 14.14 194.761 14.126 194.509 14.098C194.266 14.0793 194.065 14.0467 193.907 14V12.95C194.075 13.006 194.271 13.0527 194.495 13.09C194.719 13.118 194.933 13.132 195.139 13.132C195.792 13.132 196.329 13.0247 196.749 12.81C197.178 12.5953 197.519 12.306 197.771 11.942C198.023 11.5687 198.205 11.1393 198.317 10.654C198.429 10.1593 198.494 9.64133 198.513 9.1H198.429C198.289 9.31467 198.111 9.51067 197.897 9.688C197.682 9.86533 197.421 10.0053 197.113 10.108C196.814 10.2107 196.459 10.262 196.049 10.262C195.479 10.262 194.975 10.1453 194.537 9.912C194.107 9.66933 193.771 9.324 193.529 8.876C193.295 8.428 193.179 7.882 193.179 7.238C193.179 6.538 193.309 5.936 193.571 5.432C193.841 4.928 194.215 4.54067 194.691 4.27C195.167 3.99933 195.727 3.864 196.371 3.864C196.847 3.864 197.29 3.95733 197.701 4.144C198.111 4.32133 198.471 4.592 198.779 4.956C199.087 5.32 199.325 5.77733 199.493 6.328C199.67 6.87867 199.759 7.52733 199.759 8.274ZM196.371 4.9C195.792 4.9 195.316 5.09133 194.943 5.474C194.579 5.85667 194.397 6.44 194.397 7.224C194.397 7.868 194.551 8.37667 194.859 8.75C195.176 9.114 195.661 9.296 196.315 9.296C196.763 9.296 197.15 9.20733 197.477 9.03C197.803 8.84333 198.055 8.61 198.233 8.33C198.419 8.05 198.513 7.76067 198.513 7.462C198.513 7.16333 198.466 6.86467 198.373 6.566C198.289 6.258 198.158 5.978 197.981 5.726C197.803 5.474 197.579 5.27333 197.309 5.124C197.038 4.97467 196.725 4.9 196.371 4.9ZM207.812 8.988C207.812 9.8 207.752 10.5233 207.63 11.158C207.509 11.7927 207.313 12.334 207.042 12.782C206.781 13.2207 206.436 13.5567 206.006 13.79C205.586 14.0233 205.078 14.14 204.48 14.14C203.734 14.14 203.113 13.9347 202.618 13.524C202.133 13.1133 201.769 12.5253 201.526 11.76C201.293 10.9853 201.176 10.0613 201.176 8.988C201.176 7.90533 201.284 6.98133 201.498 6.216C201.722 5.45067 202.077 4.86733 202.562 4.466C203.048 4.05533 203.687 3.85 204.48 3.85C205.227 3.85 205.848 4.05533 206.342 4.466C206.837 4.86733 207.206 5.45067 207.448 6.216C207.691 6.98133 207.812 7.90533 207.812 8.988ZM202.408 8.988C202.408 9.90267 202.474 10.6633 202.604 11.27C202.744 11.8767 202.964 12.334 203.262 12.642C203.57 12.9407 203.976 13.09 204.48 13.09C204.984 13.09 205.386 12.9407 205.684 12.642C205.992 12.3433 206.216 11.8907 206.356 11.284C206.496 10.668 206.566 9.90267 206.566 8.988C206.566 8.07333 206.496 7.31733 206.356 6.72C206.216 6.11333 205.992 5.66067 205.684 5.362C205.386 5.054 204.984 4.9 204.48 4.9C203.976 4.9 203.57 5.054 203.262 5.362C202.964 5.66067 202.744 6.11333 202.604 6.72C202.474 7.31733 202.408 8.07333 202.408 8.988ZM213.57 4.004L209.846 14H208.642L212.366 4.004H213.57ZM218.681 14H217.477V7.014C217.477 6.74333 217.477 6.51467 217.477 6.328C217.486 6.14133 217.496 5.96867 217.505 5.81C217.514 5.642 217.524 5.46933 217.533 5.292C217.384 5.44133 217.248 5.56733 217.127 5.67C217.006 5.77267 216.852 5.90333 216.665 6.062L215.601 6.93L214.957 6.104L217.659 4.004H218.681V14ZM229.003 14H222.395V12.978L225.013 10.332C225.517 9.828 225.941 9.38 226.287 8.988C226.632 8.596 226.893 8.21333 227.071 7.84C227.248 7.45733 227.337 7.042 227.337 6.594C227.337 6.04333 227.173 5.628 226.847 5.348C226.52 5.05867 226.095 4.914 225.573 4.914C225.087 4.914 224.658 4.998 224.285 5.166C223.921 5.334 223.547 5.56733 223.165 5.866L222.507 5.04C222.768 4.816 223.053 4.61533 223.361 4.438C223.678 4.26067 224.019 4.12067 224.383 4.018C224.756 3.91533 225.153 3.864 225.573 3.864C226.198 3.864 226.735 3.97133 227.183 4.186C227.631 4.40067 227.976 4.70867 228.219 5.11C228.471 5.502 228.597 5.97333 228.597 6.524C228.597 6.916 228.536 7.28933 228.415 7.644C228.293 7.98933 228.121 8.33 227.897 8.666C227.673 9.002 227.402 9.34267 227.085 9.688C226.767 10.0333 226.417 10.3927 226.035 10.766L223.949 12.824V12.88H229.003V14ZM237.056 8.988C237.056 9.8 236.996 10.5233 236.874 11.158C236.753 11.7927 236.557 12.334 236.286 12.782C236.025 13.2207 235.68 13.5567 235.25 13.79C234.83 14.0233 234.322 14.14 233.724 14.14C232.978 14.14 232.357 13.9347 231.862 13.524C231.377 13.1133 231.013 12.5253 230.77 11.76C230.537 10.9853 230.42 10.0613 230.42 8.988C230.42 7.90533 230.528 6.98133 230.742 6.216C230.966 5.45067 231.321 4.86733 231.806 4.466C232.292 4.05533 232.931 3.85 233.724 3.85C234.471 3.85 235.092 4.05533 235.586 4.466C236.081 4.86733 236.45 5.45067 236.692 6.216C236.935 6.98133 237.056 7.90533 237.056 8.988ZM231.652 8.988C231.652 9.90267 231.718 10.6633 231.848 11.27C231.988 11.8767 232.208 12.334 232.506 12.642C232.814 12.9407 233.22 13.09 233.724 13.09C234.228 13.09 234.63 12.9407 234.928 12.642C235.236 12.3433 235.46 11.8907 235.6 11.284C235.74 10.668 235.81 9.90267 235.81 8.988C235.81 8.07333 235.74 7.31733 235.6 6.72C235.46 6.11333 235.236 5.66067 234.928 5.362C234.63 5.054 234.228 4.9 233.724 4.9C233.22 4.9 232.814 5.054 232.506 5.362C232.208 5.66067 231.988 6.11333 231.848 6.72C231.718 7.31733 231.652 8.07333 231.652 8.988Z" fill="black"/>
<path d="M125.96 52.912V55.904H132.04V58H123.688V46H131.912V48.064H125.96V50.864H131.368V52.912H125.96ZM136.349 58H134.125V46H136.461L142.189 54.32H142.221V46H144.445V58H142.109L136.381 49.68H136.349V58ZM146.086 46H155.702V48.128H152.038V58H149.766V48.128H146.086V46ZM163.904 53.52L166.576 57.696V58H164.08L161.632 53.776H159.584V58H157.328V46H162.288C163.547 46 164.555 46.3573 165.312 47.072C166.07 47.7867 166.448 48.7413 166.448 49.936C166.448 50.8107 166.224 51.5627 165.776 52.192C165.328 52.8213 164.704 53.264 163.904 53.52ZM162.032 48.096H159.584V51.728H162C163.43 51.728 164.144 51.1307 164.144 49.936C164.144 48.7093 163.44 48.096 162.032 48.096ZM171.956 46H174.516L179.012 57.696V58H176.66L175.796 55.568H170.628L169.748 58H167.428V57.696L171.956 46ZM173.204 48.432L171.348 53.552H175.076L173.236 48.432H173.204ZM178.102 46H187.718V48.128H184.054V58H181.782V48.128H178.102V46ZM191.331 46H193.891L198.387 57.696V58H196.035L195.171 55.568H190.003L189.123 58H186.803V57.696L191.331 46ZM192.579 48.432L190.723 53.552H194.451L192.611 48.432H192.579Z" fill="black"/>
<g filter="url(#filter0_d_100_6524)">
<rect x="28.75" y="120.25" width="95.5" height="31.5" rx="4.75" fill="#F2F2F2"/>
<path d="M53.72 135.896L53.286 138.136H55.204V139.074H53.104L52.53 142H51.536L52.11 139.074H50.108L49.562 142H48.582L49.114 139.074H47.35V138.136H49.296L49.744 135.896H47.868V134.972H49.912L50.472 132.004H51.48L50.92 134.972H52.936L53.496 132.004H54.462L53.902 134.972H55.68V135.896H53.72ZM50.29 138.136H52.292L52.726 135.896H50.724L50.29 138.136ZM63.5526 136.568H66.3386V137.562H63.5526V140.446H62.5446V137.562H59.7586V136.568H62.5446V133.67H63.5526V136.568ZM71.1981 144.534V134.622H71.8841L72.1501 136.428H72.1641C72.3228 135.793 72.6168 135.303 73.0461 134.958C73.4848 134.603 74.0168 134.426 74.6421 134.426C75.6035 134.426 76.3735 134.781 76.9521 135.49C77.5401 136.199 77.8341 137.151 77.8341 138.346C77.8341 139.503 77.5355 140.437 76.9381 141.146C76.3408 141.846 75.5521 142.196 74.5721 142.196C73.9748 142.196 73.4708 142.037 73.0601 141.72C72.6588 141.393 72.3928 140.955 72.2621 140.404H72.2481V144.534H71.1981ZM72.1921 138.346C72.1921 139.205 72.3975 139.905 72.8081 140.446C73.2281 140.978 73.7788 141.244 74.4601 141.244C75.1788 141.244 75.7388 140.987 76.1401 140.474C76.5508 139.961 76.7561 139.251 76.7561 138.346C76.7561 137.403 76.5601 136.675 76.1681 136.162C75.7761 135.639 75.2208 135.378 74.5021 135.378C73.8021 135.378 73.2421 135.649 72.8221 136.19C72.4021 136.731 72.1921 137.45 72.1921 138.346ZM79.6473 142V134.622H80.3333L80.5993 136.414H80.6133C80.8747 135.107 81.5887 134.454 82.7553 134.454L83.2593 134.482V135.504C83.1193 135.485 82.9607 135.476 82.7833 135.476C82.102 135.476 81.584 135.737 81.2293 136.26C80.8747 136.783 80.6973 137.553 80.6973 138.57V142H79.6473ZM87.1095 142.168C86.1295 142.168 85.3361 141.813 84.7295 141.104C84.1321 140.395 83.8335 139.452 83.8335 138.276C83.8335 137.137 84.1321 136.218 84.7295 135.518C85.3361 134.809 86.1295 134.454 87.1095 134.454C88.1175 134.454 88.9108 134.795 89.4895 135.476C90.0681 136.157 90.3575 137.086 90.3575 138.262V138.598H84.9115C84.9488 139.438 85.1588 140.087 85.5415 140.544C85.9241 141.001 86.4468 141.23 87.1095 141.23C88.1921 141.23 88.8641 140.749 89.1255 139.788H90.1895C90.0401 140.516 89.6948 141.095 89.1535 141.524C88.6121 141.953 87.9308 142.168 87.1095 142.168ZM84.9255 137.786H89.3075C89.2701 137.021 89.0555 136.428 88.6635 136.008C88.2808 135.588 87.7628 135.378 87.1095 135.378C86.4841 135.378 85.9801 135.588 85.5975 136.008C85.2148 136.428 84.9908 137.021 84.9255 137.786ZM94.5641 142.168C93.6775 142.168 92.9868 141.967 92.4921 141.566C91.9975 141.155 91.7501 140.581 91.7501 139.844H92.7861C92.7861 140.787 93.3741 141.258 94.5501 141.258C95.7448 141.258 96.3421 140.871 96.3421 140.096C96.3421 139.807 96.2581 139.578 96.0901 139.41C95.9315 139.242 95.6561 139.097 95.2641 138.976L93.5561 138.472C92.4175 138.127 91.8481 137.487 91.8481 136.554C91.8481 135.919 92.0861 135.411 92.5621 135.028C93.0381 134.645 93.6775 134.454 94.4801 134.454C95.3201 134.454 95.9735 134.645 96.4401 135.028C96.9068 135.401 97.1401 135.929 97.1401 136.61H96.1181C96.1181 135.77 95.5768 135.35 94.4941 135.35C93.4208 135.35 92.8841 135.733 92.8841 136.498C92.8841 136.778 92.9635 137.002 93.1221 137.17C93.2808 137.329 93.5515 137.464 93.9341 137.576L95.6561 138.094C96.8135 138.439 97.3921 139.093 97.3921 140.054C97.3921 140.689 97.1308 141.202 96.6081 141.594C96.0948 141.977 95.4135 142.168 94.5641 142.168ZM100.924 142.168C100.159 142.168 99.5661 141.995 99.1461 141.65C98.7354 141.295 98.5301 140.801 98.5301 140.166C98.5301 139.513 98.7307 138.999 99.1321 138.626C99.5427 138.253 100.187 138.001 101.064 137.87L103.29 137.52V136.988C103.29 136.475 103.145 136.078 102.856 135.798C102.567 135.518 102.156 135.378 101.624 135.378C101.101 135.378 100.691 135.523 100.392 135.812C100.093 136.092 99.9441 136.475 99.9441 136.96H98.8801C98.8801 136.223 99.1274 135.621 99.6221 135.154C100.126 134.687 100.793 134.454 101.624 134.454C102.445 134.454 103.099 134.687 103.584 135.154C104.079 135.611 104.326 136.232 104.326 137.016V141.202H105.166V142C104.998 142.065 104.797 142.098 104.564 142.098C103.743 142.098 103.332 141.669 103.332 140.81V140.404H103.318C103.169 140.955 102.889 141.389 102.478 141.706C102.067 142.014 101.549 142.168 100.924 142.168ZM99.5941 140.152C99.5941 140.899 100.065 141.272 101.008 141.272C101.736 141.272 102.296 141.034 102.688 140.558C103.089 140.082 103.29 139.419 103.29 138.57V138.444L101.204 138.766C100.616 138.859 100.201 139.009 99.9581 139.214C99.7154 139.419 99.5941 139.732 99.5941 140.152Z" fill="#828282"/>
<rect x="28.75" y="120.25" width="95.5" height="31.5" rx="4.75" stroke="#BDBDBD" stroke-width="0.5"/>
<circle cx="40.5" cy="104" r="11.5" stroke="#E0E0E0"/>
<circle cx="40.5" cy="168" r="11.5" stroke="#E0E0E0"/>
<circle cx="76.5" cy="104" r="11.5" stroke="#E0E0E0"/>
<circle cx="76.5" cy="168" r="11.5" stroke="#E0E0E0"/>
<circle cx="112.5" cy="104" r="11.5" stroke="#E0E0E0"/>
<circle cx="112.5" cy="168" r="11.5" stroke="#E0E0E0"/>
</g>
<g filter="url(#filter1_d_100_6524)">
<rect x="195.75" y="120.25" width="95.5" height="31.5" rx="4.75" fill="#F2F2F2"/>
<path d="M220.72 135.896L220.286 138.136H222.204V139.074H220.104L219.53 142H218.536L219.11 139.074H217.108L216.562 142H215.582L216.114 139.074H214.35V138.136H216.296L216.744 135.896H214.868V134.972H216.912L217.472 132.004H218.48L217.92 134.972H219.936L220.496 132.004H221.462L220.902 134.972H222.68V135.896H220.72ZM217.29 138.136H219.292L219.726 135.896H217.724L217.29 138.136ZM230.553 136.568H233.339V137.562H230.553V140.446H229.545V137.562H226.759V136.568H229.545V133.67H230.553V136.568ZM238.198 144.534V134.622H238.884L239.15 136.428H239.164C239.323 135.793 239.617 135.303 240.046 134.958C240.485 134.603 241.017 134.426 241.642 134.426C242.603 134.426 243.373 134.781 243.952 135.49C244.54 136.199 244.834 137.151 244.834 138.346C244.834 139.503 244.535 140.437 243.938 141.146C243.341 141.846 242.552 142.196 241.572 142.196C240.975 142.196 240.471 142.037 240.06 141.72C239.659 141.393 239.393 140.955 239.262 140.404H239.248V144.534H238.198ZM239.192 138.346C239.192 139.205 239.397 139.905 239.808 140.446C240.228 140.978 240.779 141.244 241.46 141.244C242.179 141.244 242.739 140.987 243.14 140.474C243.551 139.961 243.756 139.251 243.756 138.346C243.756 137.403 243.56 136.675 243.168 136.162C242.776 135.639 242.221 135.378 241.502 135.378C240.802 135.378 240.242 135.649 239.822 136.19C239.402 136.731 239.192 137.45 239.192 138.346ZM246.647 142V134.622H247.333L247.599 136.414H247.613C247.875 135.107 248.589 134.454 249.755 134.454L250.259 134.482V135.504C250.119 135.485 249.961 135.476 249.783 135.476C249.102 135.476 248.584 135.737 248.229 136.26C247.875 136.783 247.697 137.553 247.697 138.57V142H246.647ZM254.109 142.168C253.129 142.168 252.336 141.813 251.729 141.104C251.132 140.395 250.833 139.452 250.833 138.276C250.833 137.137 251.132 136.218 251.729 135.518C252.336 134.809 253.129 134.454 254.109 134.454C255.117 134.454 255.911 134.795 256.489 135.476C257.068 136.157 257.357 137.086 257.357 138.262V138.598H251.911C251.949 139.438 252.159 140.087 252.541 140.544C252.924 141.001 253.447 141.23 254.109 141.23C255.192 141.23 255.864 140.749 256.125 139.788H257.189C257.04 140.516 256.695 141.095 256.153 141.524C255.612 141.953 254.931 142.168 254.109 142.168ZM251.925 137.786H256.307C256.27 137.021 256.055 136.428 255.663 136.008C255.281 135.588 254.763 135.378 254.109 135.378C253.484 135.378 252.98 135.588 252.597 136.008C252.215 136.428 251.991 137.021 251.925 137.786ZM261.564 142.168C260.677 142.168 259.987 141.967 259.492 141.566C258.997 141.155 258.75 140.581 258.75 139.844H259.786C259.786 140.787 260.374 141.258 261.55 141.258C262.745 141.258 263.342 140.871 263.342 140.096C263.342 139.807 263.258 139.578 263.09 139.41C262.931 139.242 262.656 139.097 262.264 138.976L260.556 138.472C259.417 138.127 258.848 137.487 258.848 136.554C258.848 135.919 259.086 135.411 259.562 135.028C260.038 134.645 260.677 134.454 261.48 134.454C262.32 134.454 262.973 134.645 263.44 135.028C263.907 135.401 264.14 135.929 264.14 136.61H263.118C263.118 135.77 262.577 135.35 261.494 135.35C260.421 135.35 259.884 135.733 259.884 136.498C259.884 136.778 259.963 137.002 260.122 137.17C260.281 137.329 260.551 137.464 260.934 137.576L262.656 138.094C263.813 138.439 264.392 139.093 264.392 140.054C264.392 140.689 264.131 141.202 263.608 141.594C263.095 141.977 262.413 142.168 261.564 142.168ZM267.924 142.168C267.159 142.168 266.566 141.995 266.146 141.65C265.735 141.295 265.53 140.801 265.53 140.166C265.53 139.513 265.731 138.999 266.132 138.626C266.543 138.253 267.187 138.001 268.064 137.87L270.29 137.52V136.988C270.29 136.475 270.145 136.078 269.856 135.798C269.567 135.518 269.156 135.378 268.624 135.378C268.101 135.378 267.691 135.523 267.392 135.812C267.093 136.092 266.944 136.475 266.944 136.96H265.88C265.88 136.223 266.127 135.621 266.622 135.154C267.126 134.687 267.793 134.454 268.624 134.454C269.445 134.454 270.099 134.687 270.584 135.154C271.079 135.611 271.326 136.232 271.326 137.016V141.202H272.166V142C271.998 142.065 271.797 142.098 271.564 142.098C270.743 142.098 270.332 141.669 270.332 140.81V140.404H270.318C270.169 140.955 269.889 141.389 269.478 141.706C269.067 142.014 268.549 142.168 267.924 142.168ZM266.594 140.152C266.594 140.899 267.065 141.272 268.008 141.272C268.736 141.272 269.296 141.034 269.688 140.558C270.089 140.082 270.29 139.419 270.29 138.57V138.444L268.204 138.766C267.616 138.859 267.201 139.009 266.958 139.214C266.715 139.419 266.594 139.732 266.594 140.152Z" fill="#828282"/>
<rect x="195.75" y="120.25" width="95.5" height="31.5" rx="4.75" stroke="#BDBDBD" stroke-width="0.5"/>
<circle cx="207.5" cy="104" r="11.5" stroke="#E0E0E0"/>
<circle cx="207.5" cy="168" r="11.5" stroke="#E0E0E0"/>
<circle cx="243.5" cy="104" r="11.5" stroke="#E0E0E0"/>
<circle cx="243.5" cy="168" r="11.5" stroke="#E0E0E0"/>
<circle cx="279.5" cy="104" r="11.5" stroke="#E0E0E0"/>
<circle cx="279.5" cy="168" r="11.5" stroke="#E0E0E0"/>
</g>
<g filter="url(#filter2_d_100_6524)">
<rect x="28.75" y="248.25" width="95.5" height="31.5" rx="4.75" fill="#F2F2F2"/>
<path d="M53.72 263.896L53.286 266.136H55.204V267.074H53.104L52.53 270H51.536L52.11 267.074H50.108L49.562 270H48.582L49.114 267.074H47.35V266.136H49.296L49.744 263.896H47.868V262.972H49.912L50.472 260.004H51.48L50.92 262.972H52.936L53.496 260.004H54.462L53.902 262.972H55.68V263.896H53.72ZM50.29 266.136H52.292L52.726 263.896H50.724L50.29 266.136ZM63.5526 264.568H66.3386V265.562H63.5526V268.446H62.5446V265.562H59.7586V264.568H62.5446V261.67H63.5526V264.568ZM71.1981 272.534V262.622H71.8841L72.1501 264.428H72.1641C72.3228 263.793 72.6168 263.303 73.0461 262.958C73.4848 262.603 74.0168 262.426 74.6421 262.426C75.6035 262.426 76.3735 262.781 76.9521 263.49C77.5401 264.199 77.8341 265.151 77.8341 266.346C77.8341 267.503 77.5355 268.437 76.9381 269.146C76.3408 269.846 75.5521 270.196 74.5721 270.196C73.9748 270.196 73.4708 270.037 73.0601 269.72C72.6588 269.393 72.3928 268.955 72.2621 268.404H72.2481V272.534H71.1981ZM72.1921 266.346C72.1921 267.205 72.3975 267.905 72.8081 268.446C73.2281 268.978 73.7788 269.244 74.4601 269.244C75.1788 269.244 75.7388 268.987 76.1401 268.474C76.5508 267.961 76.7561 267.251 76.7561 266.346C76.7561 265.403 76.5601 264.675 76.1681 264.162C75.7761 263.639 75.2208 263.378 74.5021 263.378C73.8021 263.378 73.2421 263.649 72.8221 264.19C72.4021 264.731 72.1921 265.45 72.1921 266.346ZM79.6473 270V262.622H80.3333L80.5993 264.414H80.6133C80.8747 263.107 81.5887 262.454 82.7553 262.454L83.2593 262.482V263.504C83.1193 263.485 82.9607 263.476 82.7833 263.476C82.102 263.476 81.584 263.737 81.2293 264.26C80.8747 264.783 80.6973 265.553 80.6973 266.57V270H79.6473ZM87.1095 270.168C86.1295 270.168 85.3361 269.813 84.7295 269.104C84.1321 268.395 83.8335 267.452 83.8335 266.276C83.8335 265.137 84.1321 264.218 84.7295 263.518C85.3361 262.809 86.1295 262.454 87.1095 262.454C88.1175 262.454 88.9108 262.795 89.4895 263.476C90.0681 264.157 90.3575 265.086 90.3575 266.262V266.598H84.9115C84.9488 267.438 85.1588 268.087 85.5415 268.544C85.9241 269.001 86.4468 269.23 87.1095 269.23C88.1921 269.23 88.8641 268.749 89.1255 267.788H90.1895C90.0401 268.516 89.6948 269.095 89.1535 269.524C88.6121 269.953 87.9308 270.168 87.1095 270.168ZM84.9255 265.786H89.3075C89.2701 265.021 89.0555 264.428 88.6635 264.008C88.2808 263.588 87.7628 263.378 87.1095 263.378C86.4841 263.378 85.9801 263.588 85.5975 264.008C85.2148 264.428 84.9908 265.021 84.9255 265.786ZM94.5641 270.168C93.6775 270.168 92.9868 269.967 92.4921 269.566C91.9975 269.155 91.7501 268.581 91.7501 267.844H92.7861C92.7861 268.787 93.3741 269.258 94.5501 269.258C95.7448 269.258 96.3421 268.871 96.3421 268.096C96.3421 267.807 96.2581 267.578 96.0901 267.41C95.9315 267.242 95.6561 267.097 95.2641 266.976L93.5561 266.472C92.4175 266.127 91.8481 265.487 91.8481 264.554C91.8481 263.919 92.0861 263.411 92.5621 263.028C93.0381 262.645 93.6775 262.454 94.4801 262.454C95.3201 262.454 95.9735 262.645 96.4401 263.028C96.9068 263.401 97.1401 263.929 97.1401 264.61H96.1181C96.1181 263.77 95.5768 263.35 94.4941 263.35C93.4208 263.35 92.8841 263.733 92.8841 264.498C92.8841 264.778 92.9635 265.002 93.1221 265.17C93.2808 265.329 93.5515 265.464 93.9341 265.576L95.6561 266.094C96.8135 266.439 97.3921 267.093 97.3921 268.054C97.3921 268.689 97.1308 269.202 96.6081 269.594C96.0948 269.977 95.4135 270.168 94.5641 270.168ZM100.924 270.168C100.159 270.168 99.5661 269.995 99.1461 269.65C98.7354 269.295 98.5301 268.801 98.5301 268.166C98.5301 267.513 98.7307 266.999 99.1321 266.626C99.5427 266.253 100.187 266.001 101.064 265.87L103.29 265.52V264.988C103.29 264.475 103.145 264.078 102.856 263.798C102.567 263.518 102.156 263.378 101.624 263.378C101.101 263.378 100.691 263.523 100.392 263.812C100.093 264.092 99.9441 264.475 99.9441 264.96H98.8801C98.8801 264.223 99.1274 263.621 99.6221 263.154C100.126 262.687 100.793 262.454 101.624 262.454C102.445 262.454 103.099 262.687 103.584 263.154C104.079 263.611 104.326 264.232 104.326 265.016V269.202H105.166V270C104.998 270.065 104.797 270.098 104.564 270.098C103.743 270.098 103.332 269.669 103.332 268.81V268.404H103.318C103.169 268.955 102.889 269.389 102.478 269.706C102.067 270.014 101.549 270.168 100.924 270.168ZM99.5941 268.152C99.5941 268.899 100.065 269.272 101.008 269.272C101.736 269.272 102.296 269.034 102.688 268.558C103.089 268.082 103.29 267.419 103.29 266.57V266.444L101.204 266.766C100.616 266.859 100.201 267.009 99.9581 267.214C99.7154 267.419 99.5941 267.732 99.5941 268.152Z" fill="#828282"/>
<rect x="28.75" y="248.25" width="95.5" height="31.5" rx="4.75" stroke="#BDBDBD" stroke-width="0.5"/>
<circle cx="40.5" cy="232" r="11.5" stroke="#E0E0E0"/>
<circle cx="40.5" cy="296" r="11.5" stroke="#E0E0E0"/>
<circle cx="76.5" cy="232" r="11.5" stroke="#E0E0E0"/>
<circle cx="76.5" cy="296" r="11.5" stroke="#E0E0E0"/>
<circle cx="112.5" cy="232" r="11.5" stroke="#E0E0E0"/>
<circle cx="112.5" cy="296" r="11.5" stroke="#E0E0E0"/>
</g>
<g filter="url(#filter3_d_100_6524)">
<rect x="195.75" y="248.25" width="95.5" height="31.5" rx="4.75" fill="#F2F2F2"/>
<path d="M220.72 263.896L220.286 266.136H222.204V267.074H220.104L219.53 270H218.536L219.11 267.074H217.108L216.562 270H215.582L216.114 267.074H214.35V266.136H216.296L216.744 263.896H214.868V262.972H216.912L217.472 260.004H218.48L217.92 262.972H219.936L220.496 260.004H221.462L220.902 262.972H222.68V263.896H220.72ZM217.29 266.136H219.292L219.726 263.896H217.724L217.29 266.136ZM230.553 264.568H233.339V265.562H230.553V268.446H229.545V265.562H226.759V264.568H229.545V261.67H230.553V264.568ZM238.198 272.534V262.622H238.884L239.15 264.428H239.164C239.323 263.793 239.617 263.303 240.046 262.958C240.485 262.603 241.017 262.426 241.642 262.426C242.603 262.426 243.373 262.781 243.952 263.49C244.54 264.199 244.834 265.151 244.834 266.346C244.834 267.503 244.535 268.437 243.938 269.146C243.341 269.846 242.552 270.196 241.572 270.196C240.975 270.196 240.471 270.037 240.06 269.72C239.659 269.393 239.393 268.955 239.262 268.404H239.248V272.534H238.198ZM239.192 266.346C239.192 267.205 239.397 267.905 239.808 268.446C240.228 268.978 240.779 269.244 241.46 269.244C242.179 269.244 242.739 268.987 243.14 268.474C243.551 267.961 243.756 267.251 243.756 266.346C243.756 265.403 243.56 264.675 243.168 264.162C242.776 263.639 242.221 263.378 241.502 263.378C240.802 263.378 240.242 263.649 239.822 264.19C239.402 264.731 239.192 265.45 239.192 266.346ZM246.647 270V262.622H247.333L247.599 264.414H247.613C247.875 263.107 248.589 262.454 249.755 262.454L250.259 262.482V263.504C250.119 263.485 249.961 263.476 249.783 263.476C249.102 263.476 248.584 263.737 248.229 264.26C247.875 264.783 247.697 265.553 247.697 266.57V270H246.647ZM254.109 270.168C253.129 270.168 252.336 269.813 251.729 269.104C251.132 268.395 250.833 267.452 250.833 266.276C250.833 265.137 251.132 264.218 251.729 263.518C252.336 262.809 253.129 262.454 254.109 262.454C255.117 262.454 255.911 262.795 256.489 263.476C257.068 264.157 257.357 265.086 257.357 266.262V266.598H251.911C251.949 267.438 252.159 268.087 252.541 268.544C252.924 269.001 253.447 269.23 254.109 269.23C255.192 269.23 255.864 268.749 256.125 267.788H257.189C257.04 268.516 256.695 269.095 256.153 269.524C255.612 269.953 254.931 270.168 254.109 270.168ZM251.925 265.786H256.307C256.27 265.021 256.055 264.428 255.663 264.008C255.281 263.588 254.763 263.378 254.109 263.378C253.484 263.378 252.98 263.588 252.597 264.008C252.215 264.428 251.991 265.021 251.925 265.786ZM261.564 270.168C260.677 270.168 259.987 269.967 259.492 269.566C258.997 269.155 258.75 268.581 258.75 267.844H259.786C259.786 268.787 260.374 269.258 261.55 269.258C262.745 269.258 263.342 268.871 263.342 268.096C263.342 267.807 263.258 267.578 263.09 267.41C262.931 267.242 262.656 267.097 262.264 266.976L260.556 266.472C259.417 266.127 258.848 265.487 258.848 264.554C258.848 263.919 259.086 263.411 259.562 263.028C260.038 262.645 260.677 262.454 261.48 262.454C262.32 262.454 262.973 262.645 263.44 263.028C263.907 263.401 264.14 263.929 264.14 264.61H263.118C263.118 263.77 262.577 263.35 261.494 263.35C260.421 263.35 259.884 263.733 259.884 264.498C259.884 264.778 259.963 265.002 260.122 265.17C260.281 265.329 260.551 265.464 260.934 265.576L262.656 266.094C263.813 266.439 264.392 267.093 264.392 268.054C264.392 268.689 264.131 269.202 263.608 269.594C263.095 269.977 262.413 270.168 261.564 270.168ZM267.924 270.168C267.159 270.168 266.566 269.995 266.146 269.65C265.735 269.295 265.53 268.801 265.53 268.166C265.53 267.513 265.731 266.999 266.132 266.626C266.543 266.253 267.187 266.001 268.064 265.87L270.29 265.52V264.988C270.29 264.475 270.145 264.078 269.856 263.798C269.567 263.518 269.156 263.378 268.624 263.378C268.101 263.378 267.691 263.523 267.392 263.812C267.093 264.092 266.944 264.475 266.944 264.96H265.88C265.88 264.223 266.127 263.621 266.622 263.154C267.126 262.687 267.793 262.454 268.624 262.454C269.445 262.454 270.099 262.687 270.584 263.154C271.079 263.611 271.326 264.232 271.326 265.016V269.202H272.166V270C271.998 270.065 271.797 270.098 271.564 270.098C270.743 270.098 270.332 269.669 270.332 268.81V268.404H270.318C270.169 268.955 269.889 269.389 269.478 269.706C269.067 270.014 268.549 270.168 267.924 270.168ZM266.594 268.152C266.594 268.899 267.065 269.272 268.008 269.272C268.736 269.272 269.296 269.034 269.688 268.558C270.089 268.082 270.29 267.419 270.29 266.57V266.444L268.204 266.766C267.616 266.859 267.201 267.009 266.958 267.214C266.715 267.419 266.594 267.732 266.594 268.152Z" fill="#828282"/>
<rect x="195.75" y="248.25" width="95.5" height="31.5" rx="4.75" stroke="#BDBDBD" stroke-width="0.5"/>
<circle cx="207.5" cy="232" r="11.5" stroke="#E0E0E0"/>
<circle cx="207.5" cy="296" r="11.5" stroke="#E0E0E0"/>
<circle cx="243.5" cy="232" r="11.5" stroke="#E0E0E0"/>
<circle cx="243.5" cy="296" r="11.5" stroke="#E0E0E0"/>
<circle cx="279.5" cy="232" r="11.5" stroke="#E0E0E0"/>
<circle cx="279.5" cy="296" r="11.5" stroke="#E0E0E0"/>
</g>
<g filter="url(#filter4_d_100_6524)">
<rect x="28.75" y="376.25" width="95.5" height="31.5" rx="4.75" fill="#F2F2F2"/>
<path d="M53.72 391.896L53.286 394.136H55.204V395.074H53.104L52.53 398H51.536L52.11 395.074H50.108L49.562 398H48.582L49.114 395.074H47.35V394.136H49.296L49.744 391.896H47.868V390.972H49.912L50.472 388.004H51.48L50.92 390.972H52.936L53.496 388.004H54.462L53.902 390.972H55.68V391.896H53.72ZM50.29 394.136H52.292L52.726 391.896H50.724L50.29 394.136ZM63.5526 392.568H66.3386V393.562H63.5526V396.446H62.5446V393.562H59.7586V392.568H62.5446V389.67H63.5526V392.568ZM71.1981 400.534V390.622H71.8841L72.1501 392.428H72.1641C72.3228 391.793 72.6168 391.303 73.0461 390.958C73.4848 390.603 74.0168 390.426 74.6421 390.426C75.6035 390.426 76.3735 390.781 76.9521 391.49C77.5401 392.199 77.8341 393.151 77.8341 394.346C77.8341 395.503 77.5355 396.437 76.9381 397.146C76.3408 397.846 75.5521 398.196 74.5721 398.196C73.9748 398.196 73.4708 398.037 73.0601 397.72C72.6588 397.393 72.3928 396.955 72.2621 396.404H72.2481V400.534H71.1981ZM72.1921 394.346C72.1921 395.205 72.3975 395.905 72.8081 396.446C73.2281 396.978 73.7788 397.244 74.4601 397.244C75.1788 397.244 75.7388 396.987 76.1401 396.474C76.5508 395.961 76.7561 395.251 76.7561 394.346C76.7561 393.403 76.5601 392.675 76.1681 392.162C75.7761 391.639 75.2208 391.378 74.5021 391.378C73.8021 391.378 73.2421 391.649 72.8221 392.19C72.4021 392.731 72.1921 393.45 72.1921 394.346ZM79.6473 398V390.622H80.3333L80.5993 392.414H80.6133C80.8747 391.107 81.5887 390.454 82.7553 390.454L83.2593 390.482V391.504C83.1193 391.485 82.9607 391.476 82.7833 391.476C82.102 391.476 81.584 391.737 81.2293 392.26C80.8747 392.783 80.6973 393.553 80.6973 394.57V398H79.6473ZM87.1095 398.168C86.1295 398.168 85.3361 397.813 84.7295 397.104C84.1321 396.395 83.8335 395.452 83.8335 394.276C83.8335 393.137 84.1321 392.218 84.7295 391.518C85.3361 390.809 86.1295 390.454 87.1095 390.454C88.1175 390.454 88.9108 390.795 89.4895 391.476C90.0681 392.157 90.3575 393.086 90.3575 394.262V394.598H84.9115C84.9488 395.438 85.1588 396.087 85.5415 396.544C85.9241 397.001 86.4468 397.23 87.1095 397.23C88.1921 397.23 88.8641 396.749 89.1255 395.788H90.1895C90.0401 396.516 89.6948 397.095 89.1535 397.524C88.6121 397.953 87.9308 398.168 87.1095 398.168ZM84.9255 393.786H89.3075C89.2701 393.021 89.0555 392.428 88.6635 392.008C88.2808 391.588 87.7628 391.378 87.1095 391.378C86.4841 391.378 85.9801 391.588 85.5975 392.008C85.2148 392.428 84.9908 393.021 84.9255 393.786ZM94.5641 398.168C93.6775 398.168 92.9868 397.967 92.4921 397.566C91.9975 397.155 91.7501 396.581 91.7501 395.844H92.7861C92.7861 396.787 93.3741 397.258 94.5501 397.258C95.7448 397.258 96.3421 396.871 96.3421 396.096C96.3421 395.807 96.2581 395.578 96.0901 395.41C95.9315 395.242 95.6561 395.097 95.2641 394.976L93.5561 394.472C92.4175 394.127 91.8481 393.487 91.8481 392.554C91.8481 391.919 92.0861 391.411 92.5621 391.028C93.0381 390.645 93.6775 390.454 94.4801 390.454C95.3201 390.454 95.9735 390.645 96.4401 391.028C96.9068 391.401 97.1401 391.929 97.1401 392.61H96.1181C96.1181 391.77 95.5768 391.35 94.4941 391.35C93.4208 391.35 92.8841 391.733 92.8841 392.498C92.8841 392.778 92.9635 393.002 93.1221 393.17C93.2808 393.329 93.5515 393.464 93.9341 393.576L95.6561 394.094C96.8135 394.439 97.3921 395.093 97.3921 396.054C97.3921 396.689 97.1308 397.202 96.6081 397.594C96.0948 397.977 95.4135 398.168 94.5641 398.168ZM100.924 398.168C100.159 398.168 99.5661 397.995 99.1461 397.65C98.7354 397.295 98.5301 396.801 98.5301 396.166C98.5301 395.513 98.7307 394.999 99.1321 394.626C99.5427 394.253 100.187 394.001 101.064 393.87L103.29 393.52V392.988C103.29 392.475 103.145 392.078 102.856 391.798C102.567 391.518 102.156 391.378 101.624 391.378C101.101 391.378 100.691 391.523 100.392 391.812C100.093 392.092 99.9441 392.475 99.9441 392.96H98.8801C98.8801 392.223 99.1274 391.621 99.6221 391.154C100.126 390.687 100.793 390.454 101.624 390.454C102.445 390.454 103.099 390.687 103.584 391.154C104.079 391.611 104.326 392.232 104.326 393.016V397.202H105.166V398C104.998 398.065 104.797 398.098 104.564 398.098C103.743 398.098 103.332 397.669 103.332 396.81V396.404H103.318C103.169 396.955 102.889 397.389 102.478 397.706C102.067 398.014 101.549 398.168 100.924 398.168ZM99.5941 396.152C99.5941 396.899 100.065 397.272 101.008 397.272C101.736 397.272 102.296 397.034 102.688 396.558C103.089 396.082 103.29 395.419 103.29 394.57V394.444L101.204 394.766C100.616 394.859 100.201 395.009 99.9581 395.214C99.7154 395.419 99.5941 395.732 99.5941 396.152Z" fill="#828282"/>
<rect x="28.75" y="376.25" width="95.5" height="31.5" rx="4.75" stroke="#BDBDBD" stroke-width="0.5"/>
<circle cx="40.5" cy="360" r="11.5" stroke="#E0E0E0"/>
<circle cx="40.5" cy="424" r="11.5" stroke="#E0E0E0"/>
<circle cx="76.5" cy="360" r="11.5" stroke="#E0E0E0"/>
<circle cx="76.5" cy="424" r="11.5" stroke="#E0E0E0"/>
<circle cx="112.5" cy="360" r="11.5" stroke="#E0E0E0"/>
<circle cx="112.5" cy="424" r="11.5" stroke="#E0E0E0"/>
</g>
<g filter="url(#filter5_d_100_6524)">
<rect x="195.75" y="376.25" width="95.5" height="31.5" rx="4.75" fill="#F2F2F2"/>
<path d="M220.72 391.896L220.286 394.136H222.204V395.074H220.104L219.53 398H218.536L219.11 395.074H217.108L216.562 398H215.582L216.114 395.074H214.35V394.136H216.296L216.744 391.896H214.868V390.972H216.912L217.472 388.004H218.48L217.92 390.972H219.936L220.496 388.004H221.462L220.902 390.972H222.68V391.896H220.72ZM217.29 394.136H219.292L219.726 391.896H217.724L217.29 394.136ZM230.553 392.568H233.339V393.562H230.553V396.446H229.545V393.562H226.759V392.568H229.545V389.67H230.553V392.568ZM238.198 400.534V390.622H238.884L239.15 392.428H239.164C239.323 391.793 239.617 391.303 240.046 390.958C240.485 390.603 241.017 390.426 241.642 390.426C242.603 390.426 243.373 390.781 243.952 391.49C244.54 392.199 244.834 393.151 244.834 394.346C244.834 395.503 244.535 396.437 243.938 397.146C243.341 397.846 242.552 398.196 241.572 398.196C240.975 398.196 240.471 398.037 240.06 397.72C239.659 397.393 239.393 396.955 239.262 396.404H239.248V400.534H238.198ZM239.192 394.346C239.192 395.205 239.397 395.905 239.808 396.446C240.228 396.978 240.779 397.244 241.46 397.244C242.179 397.244 242.739 396.987 243.14 396.474C243.551 395.961 243.756 395.251 243.756 394.346C243.756 393.403 243.56 392.675 243.168 392.162C242.776 391.639 242.221 391.378 241.502 391.378C240.802 391.378 240.242 391.649 239.822 392.19C239.402 392.731 239.192 393.45 239.192 394.346ZM246.647 398V390.622H247.333L247.599 392.414H247.613C247.875 391.107 248.589 390.454 249.755 390.454L250.259 390.482V391.504C250.119 391.485 249.961 391.476 249.783 391.476C249.102 391.476 248.584 391.737 248.229 392.26C247.875 392.783 247.697 393.553 247.697 394.57V398H246.647ZM254.109 398.168C253.129 398.168 252.336 397.813 251.729 397.104C251.132 396.395 250.833 395.452 250.833 394.276C250.833 393.137 251.132 392.218 251.729 391.518C252.336 390.809 253.129 390.454 254.109 390.454C255.117 390.454 255.911 390.795 256.489 391.476C257.068 392.157 257.357 393.086 257.357 394.262V394.598H251.911C251.949 395.438 252.159 396.087 252.541 396.544C252.924 397.001 253.447 397.23 254.109 397.23C255.192 397.23 255.864 396.749 256.125 395.788H257.189C257.04 396.516 256.695 397.095 256.153 397.524C255.612 397.953 254.931 398.168 254.109 398.168ZM251.925 393.786H256.307C256.27 393.021 256.055 392.428 255.663 392.008C255.281 391.588 254.763 391.378 254.109 391.378C253.484 391.378 252.98 391.588 252.597 392.008C252.215 392.428 251.991 393.021 251.925 393.786ZM261.564 398.168C260.677 398.168 259.987 397.967 259.492 397.566C258.997 397.155 258.75 396.581 258.75 395.844H259.786C259.786 396.787 260.374 397.258 261.55 397.258C262.745 397.258 263.342 396.871 263.342 396.096C263.342 395.807 263.258 395.578 263.09 395.41C262.931 395.242 262.656 395.097 262.264 394.976L260.556 394.472C259.417 394.127 258.848 393.487 258.848 392.554C258.848 391.919 259.086 391.411 259.562 391.028C260.038 390.645 260.677 390.454 261.48 390.454C262.32 390.454 262.973 390.645 263.44 391.028C263.907 391.401 264.14 391.929 264.14 392.61H263.118C263.118 391.77 262.577 391.35 261.494 391.35C260.421 391.35 259.884 391.733 259.884 392.498C259.884 392.778 259.963 393.002 260.122 393.17C260.281 393.329 260.551 393.464 260.934 393.576L262.656 394.094C263.813 394.439 264.392 395.093 264.392 396.054C264.392 396.689 264.131 397.202 263.608 397.594C263.095 397.977 262.413 398.168 261.564 398.168ZM267.924 398.168C267.159 398.168 266.566 397.995 266.146 397.65C265.735 397.295 265.53 396.801 265.53 396.166C265.53 395.513 265.731 394.999 266.132 394.626C266.543 394.253 267.187 394.001 268.064 393.87L270.29 393.52V392.988C270.29 392.475 270.145 392.078 269.856 391.798C269.567 391.518 269.156 391.378 268.624 391.378C268.101 391.378 267.691 391.523 267.392 391.812C267.093 392.092 266.944 392.475 266.944 392.96H265.88C265.88 392.223 266.127 391.621 266.622 391.154C267.126 390.687 267.793 390.454 268.624 390.454C269.445 390.454 270.099 390.687 270.584 391.154C271.079 391.611 271.326 392.232 271.326 393.016V397.202H272.166V398C271.998 398.065 271.797 398.098 271.564 398.098C270.743 398.098 270.332 397.669 270.332 396.81V396.404H270.318C270.169 396.955 269.889 397.389 269.478 397.706C269.067 398.014 268.549 398.168 267.924 398.168ZM266.594 396.152C266.594 396.899 267.065 397.272 268.008 397.272C268.736 397.272 269.296 397.034 269.688 396.558C270.089 396.082 270.29 395.419 270.29 394.57V394.444L268.204 394.766C267.616 394.859 267.201 395.009 266.958 395.214C266.715 395.419 266.594 395.732 266.594 396.152Z" fill="#828282"/>
<rect x="195.75" y="376.25" width="95.5" height="31.5" rx="4.75" stroke="#BDBDBD" stroke-width="0.5"/>
<circle cx="207.5" cy="360" r="11.5" stroke="#E0E0E0"/>
<circle cx="207.5" cy="424" r="11.5" stroke="#E0E0E0"/>
<circle cx="243.5" cy="360" r="11.5" stroke="#E0E0E0"/>
<circle cx="243.5" cy="424" r="11.5" stroke="#E0E0E0"/>
<circle cx="279.5" cy="360" r="11.5" stroke="#E0E0E0"/>
<circle cx="279.5" cy="424" r="11.5" stroke="#E0E0E0"/>
</g>
<g filter="url(#filter6_d_100_6524)">
<rect x="28.75" y="504.25" width="95.5" height="31.5" rx="4.75" fill="#F2F2F2"/>
<path d="M78.22 519.896L77.786 522.136H79.704V523.074H77.604L77.03 526H76.036L76.61 523.074H74.608L74.062 526H73.082L73.614 523.074H71.85V522.136H73.796L74.244 519.896H72.368V518.972H74.412L74.972 516.004H75.98L75.42 518.972H77.436L77.996 516.004H78.962L78.402 518.972H80.18V519.896H78.22ZM74.79 522.136H76.792L77.226 519.896H75.224L74.79 522.136Z" fill="#828282"/>
<rect x="28.75" y="504.25" width="95.5" height="31.5" rx="4.75" stroke="#BDBDBD" stroke-width="0.5"/>
<circle cx="40.5" cy="488" r="11.5" stroke="#E0E0E0"/>
<circle cx="40.5" cy="552" r="11.5" stroke="#E0E0E0"/>
<circle cx="76.5" cy="488" r="11.5" stroke="#E0E0E0"/>
<circle cx="76.5" cy="552" r="11.5" stroke="#E0E0E0"/>
<circle cx="112.5" cy="488" r="11.5" stroke="#E0E0E0"/>
<circle cx="112.5" cy="552" r="11.5" stroke="#E0E0E0"/>
</g>
<g filter="url(#filter7_d_100_6524)">
<rect x="195.75" y="504.25" width="95.5" height="31.5" rx="4.75" fill="#F2F2F2"/>
<path d="M245.22 519.896L244.786 522.136H246.704V523.074H244.604L244.03 526H243.036L243.61 523.074H241.608L241.062 526H240.082L240.614 523.074H238.85V522.136H240.796L241.244 519.896H239.368V518.972H241.412L241.972 516.004H242.98L242.42 518.972H244.436L244.996 516.004H245.962L245.402 518.972H247.18V519.896H245.22ZM241.79 522.136H243.792L244.226 519.896H242.224L241.79 522.136Z" fill="#828282"/>
<rect x="195.75" y="504.25" width="95.5" height="31.5" rx="4.75" stroke="#BDBDBD" stroke-width="0.5"/>
<circle cx="207.5" cy="488" r="11.5" stroke="#E0E0E0"/>
<circle cx="207.5" cy="552" r="11.5" stroke="#E0E0E0"/>
<circle cx="243.5" cy="488" r="11.5" stroke="#E0E0E0"/>
<circle cx="243.5" cy="552" r="11.5" stroke="#E0E0E0"/>
<circle cx="279.5" cy="488" r="11.5" stroke="#E0E0E0"/>
<circle cx="279.5" cy="552" r="11.5" stroke="#E0E0E0"/>
</g>
<g filter="url(#filter8_d_100_6524)">
<rect x="28.75" y="632.25" width="95.5" height="31.5" rx="4.75" fill="#F2F2F2"/>
<path d="M78.22 647.896L77.786 650.136H79.704V651.074H77.604L77.03 654H76.036L76.61 651.074H74.608L74.062 654H73.082L73.614 651.074H71.85V650.136H73.796L74.244 647.896H72.368V646.972H74.412L74.972 644.004H75.98L75.42 646.972H77.436L77.996 644.004H78.962L78.402 646.972H80.18V647.896H78.22ZM74.79 650.136H76.792L77.226 647.896H75.224L74.79 650.136Z" fill="#828282"/>
<rect x="28.75" y="632.25" width="95.5" height="31.5" rx="4.75" stroke="#BDBDBD" stroke-width="0.5"/>
<circle cx="40.5" cy="616" r="11.5" stroke="#E0E0E0"/>
<circle cx="40.5" cy="680" r="11.5" stroke="#E0E0E0"/>
<circle cx="76.5" cy="616" r="11.5" stroke="#E0E0E0"/>
<circle cx="76.5" cy="680" r="11.5" stroke="#E0E0E0"/>
<circle cx="112.5" cy="616" r="11.5" stroke="#E0E0E0"/>
<circle cx="112.5" cy="680" r="11.5" stroke="#E0E0E0"/>
</g>
<g filter="url(#filter9_d_100_6524)">
<rect x="195.75" y="632.25" width="95.5" height="31.5" rx="4.75" fill="#F2F2F2"/>
<path d="M245.22 647.896L244.786 650.136H246.704V651.074H244.604L244.03 654H243.036L243.61 651.074H241.608L241.062 654H240.082L240.614 651.074H238.85V650.136H240.796L241.244 647.896H239.368V646.972H241.412L241.972 644.004H242.98L242.42 646.972H244.436L244.996 644.004H245.962L245.402 646.972H247.18V647.896H245.22ZM241.79 650.136H243.792L244.226 647.896H242.224L241.79 650.136Z" fill="#828282"/>
<rect x="195.75" y="632.25" width="95.5" height="31.5" rx="4.75" stroke="#BDBDBD" stroke-width="0.5"/>
<circle cx="207.5" cy="616" r="11.5" stroke="#E0E0E0"/>
<circle cx="207.5" cy="680" r="11.5" stroke="#E0E0E0"/>
<circle cx="243.5" cy="616" r="11.5" stroke="#E0E0E0"/>
<circle cx="243.5" cy="680" r="11.5" stroke="#E0E0E0"/>
<circle cx="279.5" cy="616" r="11.5" stroke="#E0E0E0"/>
<circle cx="279.5" cy="680" r="11.5" stroke="#E0E0E0"/>
</g>
<g filter="url(#filter10_d_100_6524)">
<rect x="28.75" y="760.25" width="95.5" height="31.5" rx="4.75" fill="#F2F2F2"/>
<path d="M78.22 775.896L77.786 778.136H79.704V779.074H77.604L77.03 782H76.036L76.61 779.074H74.608L74.062 782H73.082L73.614 779.074H71.85V778.136H73.796L74.244 775.896H72.368V774.972H74.412L74.972 772.004H75.98L75.42 774.972H77.436L77.996 772.004H78.962L78.402 774.972H80.18V775.896H78.22ZM74.79 778.136H76.792L77.226 775.896H75.224L74.79 778.136Z" fill="#828282"/>
<rect x="28.75" y="760.25" width="95.5" height="31.5" rx="4.75" stroke="#BDBDBD" stroke-width="0.5"/>
<circle cx="40.5" cy="744" r="11.5" stroke="#E0E0E0"/>
<circle cx="40.5" cy="808" r="11.5" stroke="#E0E0E0"/>
<circle cx="76.5" cy="744" r="11.5" stroke="#E0E0E0"/>
<circle cx="76.5" cy="808" r="11.5" stroke="#E0E0E0"/>
<circle cx="112.5" cy="744" r="11.5" stroke="#E0E0E0"/>
<circle cx="112.5" cy="808" r="11.5" stroke="#E0E0E0"/>
</g>
<g filter="url(#filter11_d_100_6524)">
<rect x="195.75" y="760.25" width="95.5" height="31.5" rx="4.75" fill="#F2F2F2"/>
<path d="M245.22 775.896L244.786 778.136H246.704V779.074H244.604L244.03 782H243.036L243.61 779.074H241.608L241.062 782H240.082L240.614 779.074H238.85V778.136H240.796L241.244 775.896H239.368V774.972H241.412L241.972 772.004H242.98L242.42 774.972H244.436L244.996 772.004H245.962L245.402 774.972H247.18V775.896H245.22ZM241.79 778.136H243.792L244.226 775.896H242.224L241.79 778.136Z" fill="#828282"/>
<rect x="195.75" y="760.25" width="95.5" height="31.5" rx="4.75" stroke="#BDBDBD" stroke-width="0.5"/>
<circle cx="207.5" cy="744" r="11.5" stroke="#E0E0E0"/>
<circle cx="207.5" cy="808" r="11.5" stroke="#E0E0E0"/>
<circle cx="243.5" cy="744" r="11.5" stroke="#E0E0E0"/>
<circle cx="243.5" cy="808" r="11.5" stroke="#E0E0E0"/>
<circle cx="279.5" cy="744" r="11.5" stroke="#E0E0E0"/>
<circle cx="279.5" cy="808" r="11.5" stroke="#E0E0E0"/>
</g>
<g filter="url(#filter12_d_100_6524)">
<rect x="28.75" y="888.25" width="95.5" height="31.5" rx="4.75" fill="#F2F2F2"/>
<path d="M78.22 903.896L77.786 906.136H79.704V907.074H77.604L77.03 910H76.036L76.61 907.074H74.608L74.062 910H73.082L73.614 907.074H71.85V906.136H73.796L74.244 903.896H72.368V902.972H74.412L74.972 900.004H75.98L75.42 902.972H77.436L77.996 900.004H78.962L78.402 902.972H80.18V903.896H78.22ZM74.79 906.136H76.792L77.226 903.896H75.224L74.79 906.136Z" fill="#828282"/>
<rect x="28.75" y="888.25" width="95.5" height="31.5" rx="4.75" stroke="#BDBDBD" stroke-width="0.5"/>
<circle cx="40.5" cy="872" r="11.5" stroke="#E0E0E0"/>
<circle cx="40.5" cy="936" r="11.5" stroke="#E0E0E0"/>
<circle cx="76.5" cy="872" r="11.5" stroke="#E0E0E0"/>
<circle cx="76.5" cy="936" r="11.5" stroke="#E0E0E0"/>
<circle cx="112.5" cy="872" r="11.5" stroke="#E0E0E0"/>
<circle cx="112.5" cy="936" r="11.5" stroke="#E0E0E0"/>
</g>
<g filter="url(#filter13_d_100_6524)">
<rect x="195.75" y="888.25" width="95.5" height="31.5" rx="4.75" fill="#F2F2F2"/>
<path d="M245.22 903.896L244.786 906.136H246.704V907.074H244.604L244.03 910H243.036L243.61 907.074H241.608L241.062 910H240.082L240.614 907.074H238.85V906.136H240.796L241.244 903.896H239.368V902.972H241.412L241.972 900.004H242.98L242.42 902.972H244.436L244.996 900.004H245.962L245.402 902.972H247.18V903.896H245.22ZM241.79 906.136H243.792L244.226 903.896H242.224L241.79 906.136Z" fill="#828282"/>
<rect x="195.75" y="888.25" width="95.5" height="31.5" rx="4.75" stroke="#BDBDBD" stroke-width="0.5"/>
<circle cx="207.5" cy="872" r="11.5" stroke="#E0E0E0"/>
<circle cx="207.5" cy="936" r="11.5" stroke="#E0E0E0"/>
<circle cx="243.5" cy="872" r="11.5" stroke="#E0E0E0"/>
<circle cx="243.5" cy="936" r="11.5" stroke="#E0E0E0"/>
<circle cx="279.5" cy="872" r="11.5" stroke="#E0E0E0"/>
<circle cx="279.5" cy="936" r="11.5" stroke="#E0E0E0"/>
</g>
<g filter="url(#filter14_d_100_6524)">
<rect x="28.75" y="1016.25" width="95.5" height="31.5" rx="4.75" fill="#F2F2F2"/>
<path d="M78.22 1031.9L77.786 1034.14H79.704V1035.07H77.604L77.03 1038H76.036L76.61 1035.07H74.608L74.062 1038H73.082L73.614 1035.07H71.85V1034.14H73.796L74.244 1031.9H72.368V1030.97H74.412L74.972 1028H75.98L75.42 1030.97H77.436L77.996 1028H78.962L78.402 1030.97H80.18V1031.9H78.22ZM74.79 1034.14H76.792L77.226 1031.9H75.224L74.79 1034.14Z" fill="#828282"/>
<rect x="28.75" y="1016.25" width="95.5" height="31.5" rx="4.75" stroke="#BDBDBD" stroke-width="0.5"/>
<circle cx="40.5" cy="1000" r="11.5" stroke="#E0E0E0"/>
<circle cx="40.5" cy="1064" r="11.5" stroke="#E0E0E0"/>
<circle cx="76.5" cy="1000" r="11.5" stroke="#E0E0E0"/>
<circle cx="76.5" cy="1064" r="11.5" stroke="#E0E0E0"/>
<circle cx="112.5" cy="1000" r="11.5" stroke="#E0E0E0"/>
<circle cx="112.5" cy="1064" r="11.5" stroke="#E0E0E0"/>
</g>
<g filter="url(#filter15_d_100_6524)">
<rect x="195.75" y="1016.25" width="95.5" height="31.5" rx="4.75" fill="#F2F2F2"/>
<path d="M245.22 1031.9L244.786 1034.14H246.704V1035.07H244.604L244.03 1038H243.036L243.61 1035.07H241.608L241.062 1038H240.082L240.614 1035.07H238.85V1034.14H240.796L241.244 1031.9H239.368V1030.97H241.412L241.972 1028H242.98L242.42 1030.97H244.436L244.996 1028H245.962L245.402 1030.97H247.18V1031.9H245.22ZM241.79 1034.14H243.792L244.226 1031.9H242.224L241.79 1034.14Z" fill="#828282"/>
<rect x="195.75" y="1016.25" width="95.5" height="31.5" rx="4.75" stroke="#BDBDBD" stroke-width="0.5"/>
<circle cx="207.5" cy="1000" r="11.5" stroke="#E0E0E0"/>
<circle cx="207.5" cy="1064" r="11.5" stroke="#E0E0E0"/>
<circle cx="243.5" cy="1000" r="11.5" stroke="#E0E0E0"/>
<circle cx="243.5" cy="1064" r="11.5" stroke="#E0E0E0"/>
<circle cx="279.5" cy="1000" r="11.5" stroke="#E0E0E0"/>
<circle cx="279.5" cy="1064" r="11.5" stroke="#E0E0E0"/>
</g>
<g filter="url(#filter16_d_100_6524)">
<rect x="28.75" y="1144.25" width="95.5" height="31.5" rx="4.75" fill="#F2F2F2"/>
<path d="M78.22 1159.9L77.786 1162.14H79.704V1163.07H77.604L77.03 1166H76.036L76.61 1163.07H74.608L74.062 1166H73.082L73.614 1163.07H71.85V1162.14H73.796L74.244 1159.9H72.368V1158.97H74.412L74.972 1156H75.98L75.42 1158.97H77.436L77.996 1156H78.962L78.402 1158.97H80.18V1159.9H78.22ZM74.79 1162.14H76.792L77.226 1159.9H75.224L74.79 1162.14Z" fill="#828282"/>
<rect x="28.75" y="1144.25" width="95.5" height="31.5" rx="4.75" stroke="#BDBDBD" stroke-width="0.5"/>
<circle cx="40.5" cy="1128" r="11.5" stroke="#E0E0E0"/>
<circle cx="40.5" cy="1192" r="11.5" stroke="#E0E0E0"/>
<circle cx="76.5" cy="1128" r="11.5" stroke="#E0E0E0"/>
<circle cx="76.5" cy="1192" r="11.5" stroke="#E0E0E0"/>
<circle cx="112.5" cy="1128" r="11.5" stroke="#E0E0E0"/>
<circle cx="112.5" cy="1192" r="11.5" stroke="#E0E0E0"/>
</g>
<g filter="url(#filter17_d_100_6524)">
<rect x="28.75" y="1272.25" width="95.5" height="31.5" rx="4.75" fill="#F2F2F2"/>
<path d="M78.22 1287.9L77.786 1290.14H79.704V1291.07H77.604L77.03 1294H76.036L76.61 1291.07H74.608L74.062 1294H73.082L73.614 1291.07H71.85V1290.14H73.796L74.244 1287.9H72.368V1286.97H74.412L74.972 1284H75.98L75.42 1286.97H77.436L77.996 1284H78.962L78.402 1286.97H80.18V1287.9H78.22ZM74.79 1290.14H76.792L77.226 1287.9H75.224L74.79 1290.14Z" fill="#828282"/>
<rect x="28.75" y="1272.25" width="95.5" height="31.5" rx="4.75" stroke="#BDBDBD" stroke-width="0.5"/>
<circle cx="40.5" cy="1256" r="11.5" stroke="#E0E0E0"/>
<circle cx="40.5" cy="1320" r="11.5" stroke="#E0E0E0"/>
<circle cx="76.5" cy="1256" r="11.5" stroke="#E0E0E0"/>
<circle cx="76.5" cy="1320" r="11.5" stroke="#E0E0E0"/>
<circle cx="112.5" cy="1256" r="11.5" stroke="#E0E0E0"/>
<circle cx="112.5" cy="1320" r="11.5" stroke="#E0E0E0"/>
</g>
<defs>
<filter id="filter0_d_100_6524" x="20.5" y="84" width="112" height="104" filterUnits="userSpaceOnUse" color-interpolation-filters="sRGB">
<feFlood flood-opacity="0" result="BackgroundImageFix"/>
<feColorMatrix in="SourceAlpha" type="matrix" values="0 0 0 0 0 0 0 0 0 0 0 0 0 0 0 0 0 0 127 0" result="hardAlpha"/>
<feOffset/>
<feGaussianBlur stdDeviation="2"/>
<feComposite in2="hardAlpha" operator="out"/>
<feColorMatrix type="matrix" values="0 0 0 0 0 0 0 0 0 0 0 0 0 0 0 0 0 0 0.25 0"/>
<feBlend mode="normal" in2="BackgroundImageFix" result="effect1_dropShadow_100_6524"/>
<feBlend mode="normal" in="SourceGraphic" in2="effect1_dropShadow_100_6524" result="shape"/>
</filter>
<filter id="filter1_d_100_6524" x="187.5" y="84" width="112" height="104" filterUnits="userSpaceOnUse" color-interpolation-filters="sRGB">
<feFlood flood-opacity="0" result="BackgroundImageFix"/>
<feColorMatrix in="SourceAlpha" type="matrix" values="0 0 0 0 0 0 0 0 0 0 0 0 0 0 0 0 0 0 127 0" result="hardAlpha"/>
<feOffset/>
<feGaussianBlur stdDeviation="2"/>
<feComposite in2="hardAlpha" operator="out"/>
<feColorMatrix type="matrix" values="0 0 0 0 0 0 0 0 0 0 0 0 0 0 0 0 0 0 0.25 0"/>
<feBlend mode="normal" in2="BackgroundImageFix" result="effect1_dropShadow_100_6524"/>
<feBlend mode="normal" in="SourceGraphic" in2="effect1_dropShadow_100_6524" result="shape"/>
</filter>
<filter id="filter2_d_100_6524" x="20.5" y="212" width="112" height="104" filterUnits="userSpaceOnUse" color-interpolation-filters="sRGB">
<feFlood flood-opacity="0" result="BackgroundImageFix"/>
<feColorMatrix in="SourceAlpha" type="matrix" values="0 0 0 0 0 0 0 0 0 0 0 0 0 0 0 0 0 0 127 0" result="hardAlpha"/>
<feOffset/>
<feGaussianBlur stdDeviation="2"/>
<feComposite in2="hardAlpha" operator="out"/>
<feColorMatrix type="matrix" values="0 0 0 0 0 0 0 0 0 0 0 0 0 0 0 0 0 0 0.25 0"/>
<feBlend mode="normal" in2="BackgroundImageFix" result="effect1_dropShadow_100_6524"/>
<feBlend mode="normal" in="SourceGraphic" in2="effect1_dropShadow_100_6524" result="shape"/>
</filter>
<filter id="filter3_d_100_6524" x="187.5" y="212" width="112" height="104" filterUnits="userSpaceOnUse" color-interpolation-filters="sRGB">
<feFlood flood-opacity="0" result="BackgroundImageFix"/>
<feColorMatrix in="SourceAlpha" type="matrix" values="0 0 0 0 0 0 0 0 0 0 0 0 0 0 0 0 0 0 127 0" result="hardAlpha"/>
<feOffset/>
<feGaussianBlur stdDeviation="2"/>
<feComposite in2="hardAlpha" operator="out"/>
<feColorMatrix type="matrix" values="0 0 0 0 0 0 0 0 0 0 0 0 0 0 0 0 0 0 0.25 0"/>
<feBlend mode="normal" in2="BackgroundImageFix" result="effect1_dropShadow_100_6524"/>
<feBlend mode="normal" in="SourceGraphic" in2="effect1_dropShadow_100_6524" result="shape"/>
</filter>
<filter id="filter4_d_100_6524" x="20.5" y="340" width="112" height="104" filterUnits="userSpaceOnUse" color-interpolation-filters="sRGB">
<feFlood flood-opacity="0" result="BackgroundImageFix"/>
<feColorMatrix in="SourceAlpha" type="matrix" values="0 0 0 0 0 0 0 0 0 0 0 0 0 0 0 0 0 0 127 0" result="hardAlpha"/>
<feOffset/>
<feGaussianBlur stdDeviation="2"/>
<feComposite in2="hardAlpha" operator="out"/>
<feColorMatrix type="matrix" values="0 0 0 0 0 0 0 0 0 0 0 0 0 0 0 0 0 0 0.25 0"/>
<feBlend mode="normal" in2="BackgroundImageFix" result="effect1_dropShadow_100_6524"/>
<feBlend mode="normal" in="SourceGraphic" in2="effect1_dropShadow_100_6524" result="shape"/>
</filter>
<filter id="filter5_d_100_6524" x="187.5" y="340" width="112" height="104" filterUnits="userSpaceOnUse" color-interpolation-filters="sRGB">
<feFlood flood-opacity="0" result="BackgroundImageFix"/>
<feColorMatrix in="SourceAlpha" type="matrix" values="0 0 0 0 0 0 0 0 0 0 0 0 0 0 0 0 0 0 127 0" result="hardAlpha"/>
<feOffset/>
<feGaussianBlur stdDeviation="2"/>
<feComposite in2="hardAlpha" operator="out"/>
<feColorMatrix type="matrix" values="0 0 0 0 0 0 0 0 0 0 0 0 0 0 0 0 0 0 0.25 0"/>
<feBlend mode="normal" in2="BackgroundImageFix" result="effect1_dropShadow_100_6524"/>
<feBlend mode="normal" in="SourceGraphic" in2="effect1_dropShadow_100_6524" result="shape"/>
</filter>
<filter id="filter6_d_100_6524" x="20.5" y="468" width="112" height="104" filterUnits="userSpaceOnUse" color-interpolation-filters="sRGB">
<feFlood flood-opacity="0" result="BackgroundImageFix"/>
<feColorMatrix in="SourceAlpha" type="matrix" values="0 0 0 0 0 0 0 0 0 0 0 0 0 0 0 0 0 0 127 0" result="hardAlpha"/>
<feOffset/>
<feGaussianBlur stdDeviation="2"/>
<feComposite in2="hardAlpha" operator="out"/>
<feColorMatrix type="matrix" values="0 0 0 0 0 0 0 0 0 0 0 0 0 0 0 0 0 0 0.25 0"/>
<feBlend mode="normal" in2="BackgroundImageFix" result="effect1_dropShadow_100_6524"/>
<feBlend mode="normal" in="SourceGraphic" in2="effect1_dropShadow_100_6524" result="shape"/>
</filter>
<filter id="filter7_d_100_6524" x="187.5" y="468" width="112" height="104" filterUnits="userSpaceOnUse" color-interpolation-filters="sRGB">
<feFlood flood-opacity="0" result="BackgroundImageFix"/>
<feColorMatrix in="SourceAlpha" type="matrix" values="0 0 0 0 0 0 0 0 0 0 0 0 0 0 0 0 0 0 127 0" result="hardAlpha"/>
<feOffset/>
<feGaussianBlur stdDeviation="2"/>
<feComposite in2="hardAlpha" operator="out"/>
<feColorMatrix type="matrix" values="0 0 0 0 0 0 0 0 0 0 0 0 0 0 0 0 0 0 0.25 0"/>
<feBlend mode="normal" in2="BackgroundImageFix" result="effect1_dropShadow_100_6524"/>
<feBlend mode="normal" in="SourceGraphic" in2="effect1_dropShadow_100_6524" result="shape"/>
</filter>
<filter id="filter8_d_100_6524" x="20.5" y="596" width="112" height="104" filterUnits="userSpaceOnUse" color-interpolation-filters="sRGB">
<feFlood flood-opacity="0" result="BackgroundImageFix"/>
<feColorMatrix in="SourceAlpha" type="matrix" values="0 0 0 0 0 0 0 0 0 0 0 0 0 0 0 0 0 0 127 0" result="hardAlpha"/>
<feOffset/>
<feGaussianBlur stdDeviation="2"/>
<feComposite in2="hardAlpha" operator="out"/>
<feColorMatrix type="matrix" values="0 0 0 0 0 0 0 0 0 0 0 0 0 0 0 0 0 0 0.25 0"/>
<feBlend mode="normal" in2="BackgroundImageFix" result="effect1_dropShadow_100_6524"/>
<feBlend mode="normal" in="SourceGraphic" in2="effect1_dropShadow_100_6524" result="shape"/>
</filter>
<filter id="filter9_d_100_6524" x="187.5" y="596" width="112" height="104" filterUnits="userSpaceOnUse" color-interpolation-filters="sRGB">
<feFlood flood-opacity="0" result="BackgroundImageFix"/>
<feColorMatrix in="SourceAlpha" type="matrix" values="0 0 0 0 0 0 0 0 0 0 0 0 0 0 0 0 0 0 127 0" result="hardAlpha"/>
<feOffset/>
<feGaussianBlur stdDeviation="2"/>
<feComposite in2="hardAlpha" operator="out"/>
<feColorMatrix type="matrix" values="0 0 0 0 0 0 0 0 0 0 0 0 0 0 0 0 0 0 0.25 0"/>
<feBlend mode="normal" in2="BackgroundImageFix" result="effect1_dropShadow_100_6524"/>
<feBlend mode="normal" in="SourceGraphic" in2="effect1_dropShadow_100_6524" result="shape"/>
</filter>
<filter id="filter10_d_100_6524" x="20.5" y="724" width="112" height="104" filterUnits="userSpaceOnUse" color-interpolation-filters="sRGB">
<feFlood flood-opacity="0" result="BackgroundImageFix"/>
<feColorMatrix in="SourceAlpha" type="matrix" values="0 0 0 0 0 0 0 0 0 0 0 0 0 0 0 0 0 0 127 0" result="hardAlpha"/>
<feOffset/>
<feGaussianBlur stdDeviation="2"/>
<feComposite in2="hardAlpha" operator="out"/>
<feColorMatrix type="matrix" values="0 0 0 0 0 0 0 0 0 0 0 0 0 0 0 0 0 0 0.25 0"/>
<feBlend mode="normal" in2="BackgroundImageFix" result="effect1_dropShadow_100_6524"/>
<feBlend mode="normal" in="SourceGraphic" in2="effect1_dropShadow_100_6524" result="shape"/>
</filter>
<filter id="filter11_d_100_6524" x="187.5" y="724" width="112" height="104" filterUnits="userSpaceOnUse" color-interpolation-filters="sRGB">
<feFlood flood-opacity="0" result="BackgroundImageFix"/>
<feColorMatrix in="SourceAlpha" type="matrix" values="0 0 0 0 0 0 0 0 0 0 0 0 0 0 0 0 0 0 127 0" result="hardAlpha"/>
<feOffset/>
<feGaussianBlur stdDeviation="2"/>
<feComposite in2="hardAlpha" operator="out"/>
<feColorMatrix type="matrix" values="0 0 0 0 0 0 0 0 0 0 0 0 0 0 0 0 0 0 0.25 0"/>
<feBlend mode="normal" in2="BackgroundImageFix" result="effect1_dropShadow_100_6524"/>
<feBlend mode="normal" in="SourceGraphic" in2="effect1_dropShadow_100_6524" result="shape"/>
</filter>
<filter id="filter12_d_100_6524" x="20.5" y="852" width="112" height="104" filterUnits="userSpaceOnUse" color-interpolation-filters="sRGB">
<feFlood flood-opacity="0" result="BackgroundImageFix"/>
<feColorMatrix in="SourceAlpha" type="matrix" values="0 0 0 0 0 0 0 0 0 0 0 0 0 0 0 0 0 0 127 0" result="hardAlpha"/>
<feOffset/>
<feGaussianBlur stdDeviation="2"/>
<feComposite in2="hardAlpha" operator="out"/>
<feColorMatrix type="matrix" values="0 0 0 0 0 0 0 0 0 0 0 0 0 0 0 0 0 0 0.25 0"/>
<feBlend mode="normal" in2="BackgroundImageFix" result="effect1_dropShadow_100_6524"/>
<feBlend mode="normal" in="SourceGraphic" in2="effect1_dropShadow_100_6524" result="shape"/>
</filter>
<filter id="filter13_d_100_6524" x="187.5" y="852" width="112" height="104" filterUnits="userSpaceOnUse" color-interpolation-filters="sRGB">
<feFlood flood-opacity="0" result="BackgroundImageFix"/>
<feColorMatrix in="SourceAlpha" type="matrix" values="0 0 0 0 0 0 0 0 0 0 0 0 0 0 0 0 0 0 127 0" result="hardAlpha"/>
<feOffset/>
<feGaussianBlur stdDeviation="2"/>
<feComposite in2="hardAlpha" operator="out"/>
<feColorMatrix type="matrix" values="0 0 0 0 0 0 0 0 0 0 0 0 0 0 0 0 0 0 0.25 0"/>
<feBlend mode="normal" in2="BackgroundImageFix" result="effect1_dropShadow_100_6524"/>
<feBlend mode="normal" in="SourceGraphic" in2="effect1_dropShadow_100_6524" result="shape"/>
</filter>
<filter id="filter14_d_100_6524" x="20.5" y="980" width="112" height="104" filterUnits="userSpaceOnUse" color-interpolation-filters="sRGB">
<feFlood flood-opacity="0" result="BackgroundImageFix"/>
<feColorMatrix in="SourceAlpha" type="matrix" values="0 0 0 0 0 0 0 0 0 0 0 0 0 0 0 0 0 0 127 0" result="hardAlpha"/>
<feOffset/>
<feGaussianBlur stdDeviation="2"/>
<feComposite in2="hardAlpha" operator="out"/>
<feColorMatrix type="matrix" values="0 0 0 0 0 0 0 0 0 0 0 0 0 0 0 0 0 0 0.25 0"/>
<feBlend mode="normal" in2="BackgroundImageFix" result="effect1_dropShadow_100_6524"/>
<feBlend mode="normal" in="SourceGraphic" in2="effect1_dropShadow_100_6524" result="shape"/>
</filter>
<filter id="filter15_d_100_6524" x="187.5" y="980" width="112" height="104" filterUnits="userSpaceOnUse" color-interpolation-filters="sRGB">
<feFlood flood-opacity="0" result="BackgroundImageFix"/>
<feColorMatrix in="SourceAlpha" type="matrix" values="0 0 0 0 0 0 0 0 0 0 0 0 0 0 0 0 0 0 127 0" result="hardAlpha"/>
<feOffset/>
<feGaussianBlur stdDeviation="2"/>
<feComposite in2="hardAlpha" operator="out"/>
<feColorMatrix type="matrix" values="0 0 0 0 0 0 0 0 0 0 0 0 0 0 0 0 0 0 0.25 0"/>
<feBlend mode="normal" in2="BackgroundImageFix" result="effect1_dropShadow_100_6524"/>
<feBlend mode="normal" in="SourceGraphic" in2="effect1_dropShadow_100_6524" result="shape"/>
</filter>
<filter id="filter16_d_100_6524" x="20.5" y="1108" width="112" height="104" filterUnits="userSpaceOnUse" color-interpolation-filters="sRGB">
<feFlood flood-opacity="0" result="BackgroundImageFix"/>
<feColorMatrix in="SourceAlpha" type="matrix" values="0 0 0 0 0 0 0 0 0 0 0 0 0 0 0 0 0 0 127 0" result="hardAlpha"/>
<feOffset/>
<feGaussianBlur stdDeviation="2"/>
<feComposite in2="hardAlpha" operator="out"/>
<feColorMatrix type="matrix" values="0 0 0 0 0 0 0 0 0 0 0 0 0 0 0 0 0 0 0.25 0"/>
<feBlend mode="normal" in2="BackgroundImageFix" result="effect1_dropShadow_100_6524"/>
<feBlend mode="normal" in="SourceGraphic" in2="effect1_dropShadow_100_6524" result="shape"/>
</filter>
<filter id="filter17_d_100_6524" x="20.5" y="1236" width="112" height="104" filterUnits="userSpaceOnUse" color-interpolation-filters="sRGB">
<feFlood flood-opacity="0" result="BackgroundImageFix"/>
<feColorMatrix in="SourceAlpha" type="matrix" values="0 0 0 0 0 0 0 0 0 0 0 0 0 0 0 0 0 0 127 0" result="hardAlpha"/>
<feOffset/>
<feGaussianBlur stdDeviation="2"/>
<feComposite in2="hardAlpha" operator="out"/>
<feColorMatrix type="matrix" values="0 0 0 0 0 0 0 0 0 0 0 0 0 0 0 0 0 0 0.25 0"/>
<feBlend mode="normal" in2="BackgroundImageFix" result="effect1_dropShadow_100_6524"/>
<feBlend mode="normal" in="SourceGraphic" in2="effect1_dropShadow_100_6524" result="shape"/>
</filter>
</defs>
</svg>
